# xmcd CD database file
#
# Track frame offsets:
#	180
#	17120
#	31536
#	54676
#	67234
#	79185
#	96157
#	111987
#	130338
#	146020
#	164785
#	183966
#	208935
#	233640
#	254059
#
# Disc length: 3605 seconds
#
# Revision: 0
# Processed by: cddbd v1.5.2PL0 Copyright (c) Steve Scherf et al.
# Submitted via: CDex 1.70beta2
#
DISCID=e10e130f
DTITLE=Tommy Alverson and Boot Hill - Live at Ozona
DYEAR=1993
DGENRE=Country
TTITLE0=Texas Woman
TTITLE1=Invitation To The Blues
TTITLE2="Purty Boys"
TTITLE3=Not Tonight I've Got A Heartache
TTITLE4=I Wouldn't Trade Texas For The World
TTITLE5=Empty Glass
TTITLE6=What's The Matter With My Baby
TTITLE7=Rita Ballou
TTITLE8=Someday
TTITLE9=Angel Flying Too Close To The Ground
TTITLE10=Cheeseburger In Paradise
TTITLE11=I Forgot I Don't Live Here Anymore
TTITLE12=After Love
TTITLE13=Tonight He's Number One
TTITLE14=Follow Your Heart
EXTD=YEAR: 1993
EXTT0=
EXTT1=
EXTT2=
EXTT3=
EXTT4=
EXTT5=
EXTT6=
EXTT7=
EXTT8=
EXTT9=
EXTT10=
EXTT11=
EXTT12=
EXTT13=
EXTT14=
PLAYORDER=
